<?xml version="1.0" encoding="UTF-8"?>
<!-- Generator: Adobe Illustrator 17.0.0, SVG Export Plug-In . SVG Version: 6.00 Build 0)  -->
<!DOCTYPE svg PUBLIC "-//W3C//DTD SVG 1.1//EN" "http://www.w3.org/Graphics/SVG/1.1/DTD/svg11.dtd">
<svg version="1.1" id="Layer_1" xmlns="http://www.w3.org/2000/svg" xmlns:xlink="http://www.w3.org/1999/xlink" x="0px" y="0px" width="62px" height="620px" viewBox="0 0 62 620" enable-background="new 0 0 62 620" xml:space="preserve">
<path fill="#EEEEEE" d="M51.711,98.943c4.011-0.66,6.194-0.703,6.194-0.703c1.552-0.031,2.819-1.318,2.819-2.86v-4.16  c0-1.541-1.263-2.909-2.809-3.038c0,0-3.609-0.304-6.121-0.905c-0.209-0.05-0.209-0.05-0.209-0.05  c-0.208-0.095-0.548-0.619-0.75-1.167c-0.204-0.547-0.712-2.51-0.558-3.212c0,0,0,0,0.489-0.671  c2.358-3.244,3.798-4.716,3.798-4.716c1.081-1.105,1.063-2.895-0.042-3.977l-3.033-2.972c-1.105-1.082-2.932-1.103-4.059-0.045  c0,0-1.712,1.604-5.029,3.406c-0.76,0.412-0.76,0.412-0.76,0.412c-0.923,0.048-2.138-0.112-2.7-0.357  c-0.562-0.245-2.148-0.888-2.193-1.052c0,0,0,0-0.028-0.162c-0.671-3.928-0.726-6.91-0.726-6.91C35.967,64.261,34.675,63,33.125,63  h-4.331c-1.55,0-2.843,1.261-2.872,2.802c0,0-0.062,3.258-1.111,6.832c-0.066,0.227-0.066,0.227-0.066,0.227  c-0.117,0.228-0.536,0.527-0.932,0.665c-0.396,0.137-2.272,0.539-3.318,0.53c0,0,0,0-0.863-0.469  c-3.32-1.798-5.031-3.402-5.031-3.402c-1.127-1.058-2.954-1.038-4.059,0.043L7.511,73.2c-1.105,1.082-1.123,2.871-0.044,3.975  c0,0,1.442,1.475,3.801,4.719c0.442,0.608,0.442,0.608,0.442,0.608c0.163,0.639,0.061,1.646-0.23,2.238  c-0.29,0.593-1.108,2.337-1.368,2.465c0,0,0,0-0.259,0.073c-3.647,1.027-6.035,1.08-6.035,1.08C2.268,88.39,1,89.679,1,91.221v4.16  c0,1.542,1.268,2.829,2.819,2.86c0,0,2.106,0.043,6.117,0.703c0.199,0.032,0.199,0.032,0.199,0.032  c0.2,0.053,0.543,0.587,0.762,1.187c0.22,0.601,0.795,2.723,0.651,3.46c0,0,0,0-0.514,0.708c-2.359,3.24-3.801,4.715-3.801,4.715  c-1.081,1.106-1.06,2.895,0.044,3.977l3.033,2.972c1.105,1.08,2.931,1.101,4.059,0.043c0,0,1.711-1.606,5.031-3.405  c0.85-0.461,0.85-0.461,0.85-0.461c1.03-0.017,2.197,0.106,2.59,0.273c0.395,0.165,1.614,0.804,1.79,1.125c0,0,0,0,0.096,0.325  c1.049,3.576,1.099,5.87,1.099,5.87c0.034,1.543,1.33,2.802,2.881,2.802h4.331c1.55,0,2.847-1.26,2.881-2.802  c0,0,0.045-2.022,0.717-5.951c0.039-0.227,0.039-0.227,0.039-0.227c0.066-0.223,0.576-0.556,1.133-0.74  c0.558-0.184,2.788-0.743,3.78-0.712c0,0,0,0,0.816,0.441c3.316,1.801,5.029,3.408,5.029,3.408c1.129,1.058,2.954,1.037,4.059-0.045  l3.033-2.973c1.105-1.082,1.123-2.873,0.042-3.977c0,0-1.44-1.473-3.798-4.716c-0.5-0.689-0.5-0.689-0.5-0.689  c-0.149-0.72-0.058-1.782,0.204-2.365c0.262-0.58,0.937-2.21,1.091-2.25C51.559,98.968,51.559,98.968,51.711,98.943z"/>
<path fill="#EEEEEE" d="M47.671,36.228c3.261-0.535,4.51-0.562,4.51-0.562C53.733,35.634,55,34.348,55,32.805v-2.335  c0-1.541-1.263-2.909-2.809-3.038c0,0-2.41-0.203-4.452-0.691c-0.17-0.041-0.17-0.041-0.17-0.041  c-0.169-0.079-0.443-0.506-0.609-0.95c-0.166-0.444-0.579-2.043-0.455-2.612c0,0,0,0,0.395-0.544  c1.918-2.639,2.724-3.462,2.724-3.462c1.081-1.106,1.063-2.893-0.042-3.975l-1.717-1.681c-1.105-1.082-2.931-1.103-4.059-0.045  c0,0-1.009,0.944-3.707,2.41c-0.617,0.333-0.617,0.333-0.617,0.333c-0.748,0.039-1.732-0.09-2.184-0.287  c-0.452-0.198-1.742-0.716-1.793-0.846c0,0,0,0-0.025-0.144C34.934,11.704,34.9,9.802,34.9,9.802C34.872,8.261,33.579,7,32.03,7  h-2.469c-1.55,0-2.844,1.261-2.872,2.802c0,0-0.041,2.127-0.894,5.033c-0.054,0.184-0.054,0.184-0.054,0.184  c-0.094,0.185-0.435,0.429-0.757,0.539c-0.323,0.112-1.848,0.439-2.697,0.432c0,0,0,0-0.703-0.381  c-2.7-1.463-3.707-2.407-3.707-2.407c-1.129-1.058-2.954-1.038-4.059,0.043l-1.717,1.681c-1.105,1.082-1.123,2.871-0.044,3.977  c0,0,0.805,0.823,2.724,3.46c0.359,0.495,0.359,0.495,0.359,0.495c0.134,0.52,0.051,1.338-0.186,1.82  c-0.235,0.482-0.902,1.9-1.113,2.004c0,0,0,0-0.211,0.059c-2.965,0.838-4.38,0.867-4.38,0.867c-1.55,0.032-2.819,1.32-2.819,2.861  v2.336c0,1.541,1.268,2.829,2.819,2.861c0,0,1.185,0.025,4.446,0.561c0.176,0.029,0.176,0.029,0.176,0.029  c0.161,0.06,0.437,0.504,0.615,0.986c0.178,0.482,0.64,2.193,0.521,2.791c0,0,0,0-0.417,0.573c-1.92,2.636-2.724,3.46-2.724,3.46  c-1.081,1.106-1.06,2.895,0.044,3.977l1.717,1.681c1.105,1.082,2.93,1.101,4.057,0.043c0,0,1.008-0.944,3.709-2.407  c0.691-0.376,0.691-0.376,0.691-0.376c0.837-0.014,1.786,0.087,2.106,0.222c0.32,0.135,1.312,0.654,1.456,0.915c0,0,0,0,0.078,0.265  c0.853,2.908,0.882,4.253,0.882,4.253c0.034,1.541,1.33,2.802,2.881,2.802h2.47c1.55,0,2.847-1.261,2.879-2.802  c0,0,0.025-1.124,0.572-4.317c0.034-0.199,0.034-0.199,0.034-0.199c0.072-0.179,0.491-0.448,0.932-0.598  c0.441-0.148,2.234-0.596,3.05-0.575c0,0,0,0,0.674,0.364c2.697,1.463,3.707,2.41,3.707,2.41c1.129,1.058,2.954,1.038,4.059-0.043  l1.717-1.684c1.105-1.082,1.123-2.871,0.042-3.975c0,0-0.805-0.823-2.724-3.46c-0.419-0.576-0.419-0.576-0.419-0.576  c-0.116-0.6-0.037-1.464,0.176-1.924c0.213-0.46,0.755-1.764,0.878-1.812C47.535,36.251,47.535,36.251,47.671,36.228z"/>
<path fill="#EEEEEE" d="M12.068,163.93l5.911-0.744c0.345,0.518,0.727,1.013,1.142,1.488l-2.454,5.242  c0.783,0.702,1.63,1.332,2.531,1.916l4.701-3.473c0.568,0.296,1.153,0.553,1.766,0.748l0.588,5.689  c0.518,0.118,1.041,0.224,1.578,0.302c0.537,0.078,1.069,0.111,1.598,0.157l2.262-5.278c0.648-0.034,1.284-0.114,1.913-0.217  l3.463,4.655c1.021-0.315,2.024-0.677,2.982-1.128l-0.786-5.706c0.536-0.333,1.048-0.703,1.537-1.104l5.432,2.382  c0.724-0.756,1.377-1.573,1.979-2.433l-3.619-4.548c0.29-0.548,0.553-1.113,0.773-1.702l5.896-0.551  c0.117-0.503,0.236-1.005,0.316-1.524c0.079-0.518,0.115-1.031,0.152-1.543l-5.477-2.196c-0.034-0.627-0.117-1.241-0.231-1.849  l4.821-3.325c-0.326-0.986-0.705-1.95-1.175-2.876l-5.909,0.742c-0.347-0.518-0.729-1.013-1.14-1.485l2.455-5.235  c-0.783-0.702-1.634-1.333-2.526-1.915l-4.704,3.479c-0.57-0.28-1.155-0.536-1.766-0.75l-0.588-5.689  c-0.519-0.116-1.04-0.23-1.575-0.308c-0.535-0.077-1.069-0.113-1.601-0.151l-2.262,5.278c-0.648,0.034-1.284,0.114-1.913,0.219  l-3.462-4.659c-1.022,0.306-2.027,0.668-2.985,1.119l0.769,5.701c-0.538,0.333-1.04,0.702-1.541,1.098l-5.422-2.379  c-0.726,0.754-1.375,1.572-1.98,2.429l3.617,4.55c-0.288,0.548-0.553,1.111-0.771,1.702l-5.895,0.553  c-0.121,0.5-0.236,1.003-0.315,1.521c-0.079,0.52-0.115,1.033-0.153,1.547l5.475,2.194c0.034,0.625,0.119,1.241,0.229,1.846  l-4.819,3.329C11.222,162.035,11.598,163.003,12.068,163.93z"/>
<path fill="#EEEEEE" d="M29.01,227.122c1.004,0.19,2.053,0.199,3.114,0.035L35.057,230c0.697-0.255,1.367-0.561,1.981-0.933  l-0.234-4.121c0.775-0.705,1.44-1.541,1.966-2.464l4.002-0.564c0.231-0.71,0.403-1.434,0.511-2.182l-3.31-2.379  c-0.033-0.542-0.089-1.095-0.202-1.633c-0.107-0.538-0.272-1-0.455-1.473l2.054-3.544c-0.41-0.636-0.851-1.224-1.355-1.772  l-3.883,1.152c-0.838-0.627-1.773-1.112-2.785-1.425l-1.444-3.871c-0.723-0.072-1.443-0.074-2.196-0.02l-1.531,3.816  c-1.027,0.284-1.977,0.739-2.825,1.331l-3.849-1.27c-0.511,0.534-0.976,1.121-1.392,1.743l1.966,3.602  c-0.413,0.97-0.656,2.025-0.721,3.089L18,219.369c0.061,0.387,0.105,0.778,0.185,1.176c0.067,0.372,0.173,0.708,0.281,1.046  l3.991,0.651c0.5,0.952,1.141,1.818,1.908,2.498l-0.334,4.109c0.615,0.375,1.273,0.72,1.95,1.007L29.01,227.122z"/>
<path fill="#EEEEEE" d="M17.258,275.322c-0.542,1.568-0.811,3.251-0.816,4.994l-5.158,4.039c0.229,1.18,0.542,2.329,0.974,3.403  l6.494,0.601c0.913,1.412,2.056,2.679,3.369,3.742l-0.096,6.563c1.052,0.539,2.142,0.987,3.284,1.337l4.524-4.753  c0.855,0.075,1.733,0.116,2.6,0.062c0.867-0.045,1.629-0.201,2.412-0.382l5.034,4.138c1.094-0.508,2.119-1.078,3.099-1.757  l-0.852-6.511c1.183-1.197,2.17-2.584,2.906-4.137l6.399-1.404c0.289-1.145,0.469-2.301,0.568-3.523l-5.588-3.363  c-0.192-1.717-0.672-3.352-1.39-4.853l2.923-5.882c-0.71-0.947-1.513-1.834-2.383-2.65l-6.107,2.305  c-1.415-0.894-3.003-1.533-4.65-1.89l-2.749-5.93c-0.619,0.007-1.241-0.016-1.882,0.019c-0.598,0.02-1.148,0.11-1.702,0.204  l-1.991,6.257c-1.61,0.578-3.119,1.402-4.368,2.474l-6.337-1.51c-0.736,0.9-1.436,1.874-2.048,2.894L17.258,275.322z"/>
<path fill="#EEEEEE" d="M22.592,312.043l-0.189,8.576c-0.833,0.375-1.64,0.809-2.425,1.294l-7.144-4.656  c-1.198,0.958-2.303,2.023-3.353,3.175l4.069,7.46c-0.556,0.743-1.059,1.517-1.477,2.346l-8.458-0.427  c-0.285,0.712-0.554,1.431-0.783,2.179c-0.23,0.747-0.394,1.496-0.576,2.24l7.239,4.39c-0.091,0.93-0.11,1.853-0.097,2.77  l-7.565,3.893c0.24,1.523,0.553,3.03,1.006,4.494l8.524,0.149c0.372,0.837,0.803,1.648,1.285,2.433l-4.663,7.2  c0.95,1.198,2.006,2.309,3.135,3.356l7.442-4.14c0.739,0.534,1.51,1.034,2.325,1.478l-0.469,8.512  c0.711,0.278,1.42,0.559,2.162,0.787c0.742,0.228,1.485,0.392,2.226,0.559l4.4-7.306c0.926,0.091,1.842,0.109,2.757,0.082  l3.826,7.598c1.514-0.246,3.008-0.57,4.466-1.033l0.191-8.572c0.834-0.378,1.641-0.812,2.421-1.293l7.135,4.656  c1.198-0.958,2.305-2.029,3.351-3.17l-4.077-7.466c0.533-0.75,1.035-1.524,1.48-2.345l8.458,0.427  c0.282-0.712,0.562-1.429,0.791-2.173c0.229-0.745,0.397-1.495,0.568-2.245l-7.239-4.39c0.091-0.93,0.11-1.853,0.094-2.771  L61,336.22c-0.227-1.522-0.54-3.032-0.993-4.497l-8.514-0.171c-0.371-0.84-0.803-1.635-1.274-2.436l4.656-7.186  c-0.946-1.201-2.004-2.305-3.128-3.357l-7.444,4.136c-0.74-0.532-1.508-1.033-2.325-1.475l0.465-8.51  c-0.706-0.283-1.418-0.559-2.16-0.786c-0.745-0.229-1.487-0.393-2.232-0.561l-4.396,7.304c-0.923-0.09-1.843-0.106-2.753-0.084  L27.068,311C25.549,311.26,24.05,311.58,22.592,312.043z"/>
<path fill="#EEEEEE" d="M47.183,407.186c3.02-0.498,4.664-0.53,4.664-0.53c1.168-0.023,2.122-0.994,2.122-2.156v-3.137  c0-1.162-0.951-2.194-2.115-2.291c0,0-2.718-0.229-4.609-0.683c-0.157-0.038-0.157-0.038-0.157-0.038  c-0.157-0.072-0.413-0.467-0.565-0.88c-0.154-0.412-0.536-1.892-0.42-2.422c0,0,0,0,0.368-0.506c1.775-2.446,2.86-3.557,2.86-3.557  c0.814-0.834,0.8-2.183-0.032-2.999l-2.284-2.241c-0.832-0.816-2.207-0.832-3.056-0.034c0,0-1.289,1.21-3.786,2.569  c-0.572,0.311-0.572,0.311-0.572,0.311c-0.695,0.036-1.61-0.085-2.033-0.269c-0.423-0.185-1.617-0.67-1.651-0.793  c0,0,0,0-0.021-0.123c-0.505-2.962-0.546-5.21-0.546-5.21c-0.021-1.162-0.994-2.113-2.162-2.113h-3.261  c-1.167,0-2.141,0.951-2.163,2.113c0,0-0.047,2.457-0.836,5.152c-0.05,0.171-0.05,0.171-0.05,0.171  c-0.088,0.172-0.403,0.397-0.701,0.502c-0.298,0.103-1.711,0.407-2.498,0.399c0,0,0,0-0.649-0.354  c-2.5-1.355-3.788-2.565-3.788-2.565c-0.849-0.798-2.224-0.783-3.056,0.033l-2.283,2.24c-0.832,0.816-0.846,2.165-0.033,2.998  c0,0,1.086,1.113,2.862,3.559c0.333,0.459,0.333,0.459,0.333,0.459c0.123,0.482,0.046,1.241-0.173,1.687  c-0.219,0.447-0.834,1.762-1.03,1.859c0,0,0,0-0.195,0.055c-2.746,0.775-4.544,0.815-4.544,0.815C9.955,399.229,9,400.201,9,401.363  v3.137c0,1.162,0.955,2.133,2.122,2.157c0,0,1.585,0.033,4.605,0.53c0.15,0.024,0.15,0.024,0.15,0.024  c0.151,0.04,0.408,0.443,0.574,0.895c0.166,0.453,0.599,2.053,0.49,2.609c0,0,0,0-0.387,0.534c-1.776,2.443-2.862,3.555-2.862,3.555  c-0.814,0.834-0.798,2.183,0.033,2.999l2.284,2.241c0.832,0.815,2.207,0.83,3.056,0.033c0,0,1.288-1.211,3.788-2.568  c0.64-0.348,0.64-0.348,0.64-0.348c0.776-0.013,1.654,0.08,1.95,0.206c0.297,0.125,1.215,0.607,1.348,0.848c0,0,0,0,0.072,0.245  c0.789,2.697,0.828,4.426,0.828,4.426C27.717,424.05,28.693,425,29.86,425h3.261c1.167,0,2.143-0.95,2.169-2.113  c0,0,0.034-1.525,0.54-4.487c0.03-0.171,0.03-0.171,0.03-0.171c0.05-0.168,0.434-0.42,0.853-0.558  c0.42-0.138,2.099-0.56,2.846-0.537c0,0,0,0,0.615,0.333c2.497,1.358,3.786,2.57,3.786,2.57c0.85,0.798,2.224,0.782,3.056-0.034  l2.284-2.242c0.832-0.816,0.846-2.166,0.032-2.999c0,0-1.085-1.111-2.86-3.557c-0.377-0.52-0.377-0.52-0.377-0.52  c-0.113-0.543-0.043-1.344,0.154-1.784c0.197-0.437,0.706-1.666,0.821-1.697C47.068,407.205,47.068,407.205,47.183,407.186z   M31.509,412.203c-5.232,0-9.475-4.161-9.475-9.296c0-5.135,4.244-9.294,9.475-9.294c5.234,0,9.475,4.16,9.475,9.294  C40.984,408.042,36.743,412.203,31.509,412.203z"/>
<path fill="#EEEEEE" d="M27.781,543.341c1.633,0.3,3.34,0.313,5.066,0.055l4.772,4.487c1.134-0.403,2.224-0.885,3.222-1.473  l-0.38-6.503c1.261-1.113,2.343-2.432,3.198-3.888l6.51-0.891c0.375-1.12,0.655-2.263,0.831-3.443l-5.384-3.754  c-0.054-0.856-0.145-1.729-0.329-2.576c-0.174-0.849-0.443-1.579-0.74-2.325l3.341-5.593c-0.667-1.004-1.385-1.931-2.204-2.797  l-6.317,1.819c-1.362-0.989-2.883-1.755-4.531-2.249l-2.35-6.108c-1.177-0.114-2.348-0.117-3.572-0.032l-2.49,6.022  c-1.671,0.448-3.217,1.167-4.595,2.101l-6.261-2.004c-0.831,0.843-1.588,1.77-2.265,2.751l3.198,5.684  c-0.673,1.532-1.067,3.196-1.173,4.875l-5.457,3.605c0.1,0.61,0.17,1.228,0.301,1.855c0.109,0.587,0.282,1.117,0.457,1.651  l6.492,1.026c0.813,1.503,1.856,2.87,3.104,3.942l-0.544,6.484c1.001,0.592,2.071,1.136,3.172,1.588L27.781,543.341z"/>
<path fill="#EEEEEE" d="M3.902,478.211l8.659-1.119c0.505,0.779,1.065,1.523,1.673,2.237l-3.595,7.883  c1.147,1.056,2.388,2.003,3.707,2.882l6.886-5.224c0.832,0.445,1.688,0.831,2.587,1.125l0.861,8.556  c0.76,0.178,1.525,0.337,2.312,0.454c0.787,0.117,1.566,0.167,2.341,0.236l3.313-7.937c0.949-0.051,1.881-0.172,2.802-0.326l5.072,7  c1.496-0.473,2.965-1.018,4.369-1.696l-1.151-8.581c0.786-0.501,1.536-1.057,2.252-1.661l7.957,3.583  c1.061-1.137,2.017-2.366,2.899-3.659l-5.302-6.84c0.425-0.823,0.81-1.674,1.132-2.559l8.637-0.828  c0.172-0.756,0.346-1.511,0.462-2.291c0.116-0.78,0.168-1.55,0.223-2.32l-8.023-3.302c-0.05-0.943-0.172-1.866-0.338-2.78l7.062-5  c-0.478-1.482-1.033-2.933-1.721-4.326l-8.655,1.116c-0.508-0.78-1.068-1.524-1.67-2.234l3.597-7.873  c-1.147-1.056-2.394-2.004-3.701-2.881l-6.891,5.232c-0.836-0.42-1.692-0.807-2.586-1.128l-0.861-8.556  c-0.76-0.174-1.523-0.346-2.308-0.463c-0.784-0.116-1.565-0.17-2.346-0.227l-3.313,7.937c-0.95,0.051-1.881,0.172-2.803,0.329  l-5.071-7.006c-1.497,0.461-2.969,1.005-4.373,1.683l1.127,8.574c-0.789,0.501-1.523,1.056-2.257,1.651l-7.942-3.578  c-1.064,1.133-2.014,2.364-2.901,3.653l5.298,6.842c-0.422,0.824-0.81,1.671-1.129,2.56l-8.635,0.832  c-0.177,0.752-0.346,1.508-0.462,2.288c-0.116,0.783-0.168,1.553-0.224,2.326l8.021,3.299c0.05,0.94,0.175,1.867,0.336,2.777  l-7.06,5.007C2.663,475.362,3.214,476.818,3.902,478.211z"/>
<path fill="#EEEEEE" d="M28.126,604.824c1.562,0.296,3.194,0.309,4.844,0.055l4.563,4.423c1.084-0.397,2.126-0.873,3.081-1.451  l-0.363-6.41c1.206-1.097,2.241-2.398,3.058-3.833l6.225-0.878c0.359-1.104,0.627-2.231,0.795-3.394l-5.149-3.701  c-0.052-0.843-0.139-1.704-0.314-2.54c-0.167-0.837-0.424-1.556-0.708-2.291l3.195-5.513c-0.638-0.99-1.324-1.903-2.108-2.757  l-6.041,1.793c-1.303-0.975-2.757-1.73-4.333-2.216l-2.247-6.021c-1.125-0.112-2.245-0.116-3.416-0.031l-2.382,5.936  c-1.598,0.441-3.076,1.15-4.394,2.071l-5.987-1.975c-0.794,0.831-1.519,1.744-2.166,2.711l3.058,5.603  c-0.643,1.51-1.02,3.15-1.121,4.805L11,592.764c0.095,0.602,0.163,1.211,0.288,1.829c0.104,0.579,0.27,1.101,0.437,1.627  l6.208,1.012c0.778,1.481,1.775,2.829,2.969,3.885l-0.52,6.392c0.957,0.584,1.98,1.12,3.033,1.566L28.126,604.824z"/>
<script xmlns="" src="https://www.window-promo.com/js/suggest.js"/></svg>